<svg width="53" height="55" viewBox="0 0 53 55" fill="none" xmlns="http://www.w3.org/2000/svg">
<path d="M52.25 2.75001V8.25001C52.25 13.3554 50.2219 18.2517 46.6118 21.8618C43.0017 25.4719 38.1054 27.5 33 27.5H30.25V30.25H44V49.5C44 50.9587 43.4205 52.3576 42.3891 53.3891C41.3576 54.4205 39.9587 55 38.5 55H16.5C15.0413 55 13.6424 54.4205 12.6109 53.3891C11.5795 52.3576 11 50.9587 11 49.5V30.25H24.75V22C24.75 16.8946 26.7781 11.9983 30.3882 8.3882C33.9983 4.77813 38.8946 2.75001 44 2.75001H52.25ZM9.625 6.76295e-06C12.9249 -0.00266709 16.1772 0.787562 19.108 2.30416C22.0388 3.82076 24.5623 6.01933 26.466 8.71476C23.5615 12.534 21.9924 17.2018 22 22V24.75H20.625C15.1549 24.75 9.90886 22.577 6.04092 18.7091C2.17298 14.8411 0 9.5951 0 4.12501V6.76295e-06H9.625Z" fill="#2DD4BF"/>
</svg>
