<svg height="512" viewBox="0 0 48 48" width="512" xmlns="http://www.w3.org/2000/svg"><g id="Line"><path d="m32.35 24h11.5l-1.63-6h-10.87z"/><path d="m19.01 16h9.98l-1.17-7h-7.64z"/><path d="m16.65 18h-10.87l-1.64 6h11.51z"/><path d="m31 16h10.67l-1.67-6.26a1 1 0 0 0 -1-.74h-9.15z"/><path d="m30.32 24-1-6h-10.64l-1 6z"/><path d="m31.82 33-1.16-7h-13.32l-1.16 7h6.82v4h-3a1 1 0 0 0 0 2h8a1 1 0 0 0 0-2h-3v-4z"/><path d="m33.85 33h11.15a1 1 0 0 0 1-1.26l-1.6-5.74h-11.72z"/><path d="m3 33h11.15l1.17-7h-11.72l-1.6 5.74a1 1 0 0 0 1 1.26z"/><path d="m18.15 9h-9.15a1 1 0 0 0 -1 .74l-1.67 6.26h10.67z"/></g></svg>