<svg width="49" height="50" viewBox="0 0 49 50" fill="none" xmlns="http://www.w3.org/2000/svg">
<path d="M48.5294 22.8852V45.9997C48.5294 47.0606 48.1033 48.0781 47.3449 48.8283C46.5864 49.5785 45.5578 50 44.4852 50H34.375C33.3024 50 32.2738 49.5785 31.5153 48.8283C30.7569 48.0781 30.3308 47.0606 30.3308 45.9997V35.9988C30.3308 35.4683 30.1178 34.9596 29.7386 34.5845C29.3594 34.2094 28.8451 33.9986 28.3088 33.9986H20.2206C19.6843 33.9986 19.17 34.2094 18.7908 34.5845C18.4115 34.9596 18.1985 35.4683 18.1985 35.9988V45.9997C18.1985 47.0606 17.7724 48.0781 17.014 48.8283C16.2556 49.5785 15.227 50 14.1544 50H4.04411C2.97155 50 1.94291 49.5785 1.18449 48.8283C0.426075 48.0781 4.67293e-08 47.0606 4.67293e-08 45.9997V22.8852C-8.50347e-05 22.3315 0.116013 21.7839 0.340948 21.2769C0.565882 20.77 0.894754 20.3147 1.30675 19.9399L21.5273 1.06834L21.5551 1.04084C22.2996 0.371113 23.2697 0 24.2761 0C25.2824 0 26.2525 0.371113 26.997 1.04084C27.0056 1.05062 27.0149 1.05981 27.0248 1.06834L47.2453 19.9399C47.6532 20.3167 47.9779 20.7728 48.1988 21.2797C48.4198 21.7866 48.5323 22.3332 48.5294 22.8852Z" fill="#2DD4BF"/>
</svg>
