<svg width="67" height="50" viewBox="0 0 67 50" fill="none" xmlns="http://www.w3.org/2000/svg">
<path d="M0 8.33333C0 6.1232 0.870135 4.00358 2.41898 2.44078C3.96783 0.877973 6.06852 0 8.25893 0H57.8125C60.0029 0 62.1036 0.877973 63.6524 2.44078C65.2013 4.00358 66.0714 6.1232 66.0714 8.33333V12.5H0V8.33333ZM0 20.8333V41.6667C0 43.8768 0.870135 45.9964 2.41898 47.5592C3.96783 49.122 6.06852 50 8.25893 50H57.8125C60.0029 50 62.1036 49.122 63.6524 47.5592C65.2013 45.9964 66.0714 43.8768 66.0714 41.6667V20.8333H0ZM12.3884 29.1667H16.5179C17.6131 29.1667 18.6634 29.6057 19.4378 30.3871C20.2123 31.1685 20.6473 32.2283 20.6473 33.3333V37.5C20.6473 38.6051 20.2123 39.6649 19.4378 40.4463C18.6634 41.2277 17.6131 41.6667 16.5179 41.6667H12.3884C11.2932 41.6667 10.2428 41.2277 9.46842 40.4463C8.694 39.6649 8.25893 38.6051 8.25893 37.5V33.3333C8.25893 32.2283 8.694 31.1685 9.46842 30.3871C10.2428 29.6057 11.2932 29.1667 12.3884 29.1667Z" fill="#2DD4BF"/>
</svg>
